# xmcd
# 
# Track frame offsets:
#     150
#     24694
#     53294
# 
# Disc length: 1123
# 
# Revision: 0
# Processed by: cddbd v1.5.2PL0 Copyright (c) Steve Scherf et al.
# Submitted via: fre:ac v1.0.17
# 
DISCID=18046103
DTITLE=少女病 - 深閑セグレート
DYEAR=0
DGENRE=
TTITLE0=退廃を撃ち落して
TTITLE1=レーゾンデートル・コンフリクト
TTITLE2=conjuction
EXTD=
EXTT0=
EXTT1=
EXTT2=
PLAYORDER=
